<svg width="15" height="16" viewBox="0 0 15 16" fill="none" xmlns="http://www.w3.org/2000/svg">
<path d="M13.9626 7.15172L13.9579 7.14966L1.4458 1.96002C1.34056 1.91597 1.22604 1.89869 1.11249 1.90974C0.998941 1.92078 0.889898 1.9598 0.795117 2.0233C0.694979 2.08891 0.612724 2.1784 0.555754 2.28369C0.498784 2.38899 0.468886 2.5068 0.46875 2.62652V5.94556C0.468806 6.10923 0.525955 6.26775 0.630347 6.3938C0.73474 6.51985 0.879835 6.60554 1.04063 6.63609L7.86475 7.89791C7.89156 7.90299 7.91576 7.91727 7.93317 7.93829C7.95058 7.95931 7.9601 7.98575 7.9601 8.01304C7.9601 8.04034 7.95058 8.06677 7.93317 8.08779C7.91576 8.10881 7.89156 8.1231 7.86475 8.12818L1.04092 9.39C0.880173 9.42047 0.735086 9.50604 0.630647 9.63198C0.526208 9.75792 0.468955 9.91633 0.46875 10.0799V13.3996C0.468672 13.5139 0.496979 13.6264 0.551129 13.7271C0.60528 13.8278 0.68358 13.9135 0.779004 13.9764C0.893789 14.0527 1.0285 14.0934 1.16631 14.0936C1.26212 14.0935 1.35694 14.0743 1.44521 14.0371L13.957 8.87701L13.9626 8.87437C14.131 8.80199 14.2745 8.68183 14.3754 8.52874C14.4762 8.37565 14.5299 8.19636 14.5299 8.01304C14.5299 7.82973 14.4762 7.65044 14.3754 7.49735C14.2745 7.34426 14.131 7.22409 13.9626 7.15172Z" fill="white"/>
</svg>
